<svg width="336" height="60" viewBox="0 0 336 60" fill="none" xmlns="http://www.w3.org/2000/svg">
<path d="M51.3661 59.0826C53.7223 59.0826 55.6323 57.1726 55.6323 54.8164C55.6323 52.4603 53.7223 50.5503 51.3661 50.5503C49.01 50.5503 47.1 52.4603 47.1 54.8164C47.1 57.1726 49.01 59.0826 51.3661 59.0826Z" fill="#F2591D"/>
<path d="M2.38281 2.29395C2.38281 2.29395 18.0699 18.5696 20.6368 36.2471C22.7972 51.1149 16.9593 57.9117 11.8739 56.4431C6.02997 54.756 4.14268 39.7669 16.7105 30.2636C29.3269 20.7239 51.3677 28.6615 51.3677 49.1063" stroke="url(#paint0_linear_3033_27983)" stroke-width="6.61465" stroke-miterlimit="10"/>
<path d="M60.0074 45.1009C60.0074 42.9466 60.4018 40.9926 61.1847 39.2448C61.9736 37.4971 63.0416 36.0103 64.3949 34.7906C65.7482 33.5647 67.326 32.6302 69.1344 31.9748C70.9428 31.3194 72.8604 30.9917 74.8995 30.9917C76.9385 30.9917 78.8197 31.3194 80.6221 31.9748C82.4305 32.6302 84.0083 33.5708 85.3615 34.7906C86.7148 36.0164 87.795 37.4971 88.596 39.2448C89.3971 40.9926 89.7976 42.9466 89.7976 45.1009C89.7976 47.2553 89.3971 49.1911 88.596 50.9146C87.795 52.6319 86.7148 54.0944 85.3615 55.3081C84.0083 56.5158 82.4244 57.4503 80.6221 58.1057C78.8136 58.7611 76.9081 59.0888 74.8995 59.0888C72.8908 59.0888 70.9367 58.7611 69.1344 58.1057C67.326 57.4503 65.7482 56.5158 64.3949 55.3081C63.0416 54.1005 61.9675 52.638 61.1847 50.9146C60.3958 49.1972 60.0074 47.2613 60.0074 45.1009ZM74.9055 53.7971C76.0403 53.7971 77.1023 53.5847 78.0976 53.166C79.0928 52.7472 79.9424 52.1465 80.6524 51.3758C81.3624 50.6051 81.9268 49.6887 82.3334 48.6207C82.7399 47.5587 82.9463 46.3875 82.9463 45.1009C82.9463 43.8144 82.7399 42.5886 82.3334 41.4963C81.9268 40.4039 81.3624 39.4815 80.6524 38.723C79.9363 37.9644 79.0867 37.3758 78.0976 36.951C77.1084 36.5262 76.0464 36.3198 74.9055 36.3198C73.7647 36.3198 72.6723 36.5383 71.6953 36.9752C70.7183 37.4122 69.8748 38.019 69.1587 38.7897C68.4426 39.5604 67.8843 40.4889 67.4777 41.563C67.0711 42.6432 66.8648 43.8205 66.8648 45.1009C66.8648 46.3814 67.0711 47.5526 67.4777 48.6207C67.8843 49.6827 68.4426 50.599 69.1587 51.3758C69.8748 52.1465 70.7183 52.7472 71.6953 53.166C72.6723 53.5908 73.7404 53.7971 74.9055 53.7971Z" fill="#1B1B1B"/>
<path d="M116.809 57.7717H109.903V42.3032C109.903 41.6902 109.824 41.0591 109.66 40.4037C109.502 39.7483 109.247 39.1536 108.895 38.6135C108.543 38.0734 108.106 37.6365 107.584 37.3027C107.063 36.969 106.45 36.799 105.752 36.799C105.169 36.799 104.629 36.9568 104.138 37.2785C103.64 37.6001 103.197 38.0127 102.802 38.5225C102.408 39.0323 102.08 39.6088 101.819 40.2459C101.558 40.8892 101.382 41.5143 101.297 42.1272V57.7717H94.3915V32.2962H100.424L100.994 34.2624C101.953 33.1883 103.094 32.4479 104.405 32.0535C105.715 31.659 106.996 31.4466 108.252 31.4224C109.502 31.4224 110.704 31.7379 111.857 32.363C113.01 32.988 114.005 33.8862 114.848 35.0513C115.401 34.2928 116.014 33.6738 116.681 33.1944C117.349 32.715 118.053 32.3448 118.781 32.0778C119.509 31.8168 120.28 31.6408 121.099 31.5559C121.912 31.4709 122.762 31.4224 123.636 31.4224C124.801 31.4224 125.905 31.6772 126.955 32.187C128.005 32.6967 128.927 33.4189 129.728 34.3474C130.529 35.2819 131.161 36.4107 131.628 37.7336C132.095 39.0565 132.326 40.5251 132.326 42.1272V57.7717H125.42V42.3032C125.42 41.6902 125.341 41.0591 125.177 40.4037C125.019 39.7483 124.77 39.1536 124.437 38.6135C124.103 38.0734 123.666 37.6365 123.126 37.3027C122.586 36.969 121.936 36.799 121.184 36.799C120.073 36.799 119.109 37.236 118.277 38.1098C117.446 38.9837 116.96 40.1913 116.815 41.7388V57.7717H116.809Z" fill="#1B1B1B"/>
<path d="M144.116 49.3853C144.729 50.781 145.658 51.8612 146.914 52.6198C148.164 53.3784 149.723 53.7546 151.586 53.7546C153.334 53.7546 154.93 53.4633 156.368 52.8807C157.813 52.2982 159.111 51.309 160.277 49.9072L164.688 53.2691C163.171 55.1018 161.351 56.534 159.227 57.5535C157.103 58.573 154.785 59.0827 152.278 59.0827C150.124 59.0827 148.115 58.755 146.246 58.0996C144.383 57.4442 142.757 56.5097 141.373 55.3021C139.99 54.0944 138.897 52.6198 138.096 50.8903C137.295 49.1547 136.895 47.2128 136.895 45.0585C136.895 42.9041 137.271 41.0472 138.029 39.3116C138.788 37.576 139.82 36.0953 141.13 34.8573C142.441 33.6194 143.995 32.6605 145.785 31.9748C147.575 31.2891 149.523 30.9492 151.617 30.9492C153.71 30.9492 155.525 31.283 157.23 31.9566C158.935 32.6241 160.41 33.5526 161.666 34.7299C162.916 35.9072 163.918 37.3211 164.658 38.9657C165.398 40.6103 165.817 42.4126 165.902 44.3606L144.098 49.3853H144.116ZM151.932 36.2774C149.341 36.2774 147.296 36.9995 145.791 38.4377C144.292 39.882 143.467 41.8422 143.321 44.312L159.051 40.5556C158.292 39.0385 157.303 37.9523 156.077 37.2787C154.851 36.6111 153.468 36.2713 151.926 36.2713L151.932 36.2774Z" fill="#1B1B1B"/>
<path d="M177.19 35.1369C177.803 34.2327 178.646 33.5348 179.727 33.0372C180.807 32.5395 182.069 32.2968 183.526 32.2968H188.945L187.852 37.6249H182.391C181.723 37.6249 181.086 37.7949 180.491 38.1286C179.897 38.4624 179.369 38.9175 178.92 39.4819C178.464 40.0523 178.112 40.6956 177.851 41.4238C177.591 42.152 177.457 42.9106 177.457 43.6934V57.7602H170.551V32.2847H176.583L177.196 35.1247L177.19 35.1369Z" fill="#1B1B1B"/>
<path d="M213.59 55.1081C213.123 55.6604 212.546 56.158 211.866 56.5949C211.181 57.0318 210.446 57.402 209.658 57.7115C208.869 58.0149 208.062 58.2516 207.23 58.4094C206.399 58.5672 205.592 58.6521 204.803 58.6521C203.201 58.6521 201.702 58.4033 200.3 57.9118C198.904 57.4141 197.678 56.7223 196.629 55.8363C195.579 54.9503 194.759 53.8701 194.159 52.6018C193.564 51.3335 193.26 49.9317 193.26 48.3842V32.3027H200.166V46.0236C200.166 48.5845 200.719 50.4414 201.829 51.5945C202.94 52.7475 204.451 53.3179 206.375 53.3179C208.037 53.3179 209.482 52.7596 210.72 51.6369C211.958 50.5143 212.765 48.9668 213.147 46.9824V32.3027H220.053V57.7783H214.197L213.584 55.1142L213.59 55.1081Z" fill="#1B1B1B"/>
<path d="M232.815 34.9664C233.282 34.4141 233.853 33.9165 234.538 33.4796C235.224 33.0426 235.958 32.6725 236.747 32.363C237.536 32.0535 238.349 31.8229 239.193 31.6651C240.036 31.5073 240.856 31.4224 241.638 31.4224C243.241 31.4224 244.739 31.6712 246.141 32.1627C247.537 32.6603 248.763 33.3521 249.813 34.2381C250.863 35.1241 251.682 36.2043 252.283 37.4726C252.877 38.741 253.181 40.1489 253.181 41.6902V57.7717H246.275V44.0509C246.275 41.49 245.723 39.633 244.612 38.48C243.508 37.327 241.99 36.7566 240.067 36.7566C238.404 36.7566 236.96 37.3149 235.722 38.4375C234.484 39.5602 233.677 41.1137 233.294 43.0921V57.7717H226.388V32.2962H232.244L232.815 34.9603V34.9664Z" fill="#1B1B1B"/>
<path d="M265.931 34.9664C266.398 34.4141 266.969 33.9165 267.654 33.4796C268.34 33.0426 269.074 32.6725 269.863 32.363C270.652 32.0535 271.465 31.8229 272.309 31.6651C273.152 31.5073 273.972 31.4224 274.754 31.4224C276.356 31.4224 277.855 31.6712 279.257 32.1627C280.653 32.6603 281.879 33.3521 282.929 34.2381C283.978 35.1241 284.798 36.2043 285.399 37.4726C285.993 38.741 286.297 40.1489 286.297 41.6902V57.7717H279.391V44.0509C279.391 41.49 278.838 39.633 277.728 38.48C276.623 37.327 275.106 36.7566 273.183 36.7566C271.52 36.7566 270.076 37.3149 268.838 38.4375C267.6 39.5602 266.793 41.1137 266.41 43.0921V57.7717H259.504V32.2962H265.36L265.931 34.9603V34.9664Z" fill="#1B1B1B"/>
<path d="M300.406 22.1621V28.801H293.5V22.1621H300.406ZM300.406 32.2965V57.772H293.5V32.2965H300.406Z" fill="#1B1B1B"/>
<path d="M313.294 49.3853C313.907 50.781 314.836 51.8612 316.092 52.6198C317.342 53.3784 318.902 53.7546 320.765 53.7546C322.512 53.7546 324.108 53.4633 325.547 52.8807C326.991 52.2982 328.29 51.309 329.455 49.9072L333.866 53.2691C332.349 55.1018 330.529 56.534 328.405 57.5535C326.281 58.573 323.963 59.0827 321.456 59.0827C319.302 59.0827 317.293 58.755 315.424 58.0996C313.561 57.4442 311.935 56.5097 310.551 55.3021C309.168 54.0944 308.075 52.6198 307.274 50.8903C306.473 49.1547 306.073 47.2128 306.073 45.0585C306.073 42.9041 306.449 41.0472 307.208 39.3116C307.966 37.576 308.998 36.0953 310.309 34.8573C311.619 33.6194 313.173 32.6605 314.963 31.9748C316.753 31.2891 318.701 30.9492 320.795 30.9492C322.889 30.9492 324.703 31.283 326.408 31.9566C328.114 32.6241 329.588 33.5526 330.844 34.7299C332.095 35.9072 333.096 37.3211 333.836 38.9657C334.577 40.6103 334.995 42.4126 335.08 44.3606L313.276 49.3853H313.294ZM321.117 36.2774C318.525 36.2774 316.48 36.9995 314.975 38.4377C313.476 39.882 312.651 41.8422 312.505 44.312L328.235 40.5556C327.476 39.0385 326.487 37.9523 325.261 37.2787C324.036 36.6111 322.652 36.2713 321.111 36.2713L321.117 36.2774Z" fill="#1B1B1B"/>
<defs>
<linearGradient id="paint0_linear_3033_27983" x1="3.10127" y1="2.29395" x2="50.6037" y2="57.0608" gradientUnits="userSpaceOnUse">
<stop stop-color="#009DFE"/>
<stop offset="0.272383" stop-color="#0ABF00"/>
<stop offset="0.629808" stop-color="#FFAE00"/>
<stop offset="0.937655" stop-color="#F2721D"/>
</linearGradient>
</defs>
</svg>
