<svg width="98" height="98" viewBox="0 0 98 98" fill="none" xmlns="http://www.w3.org/2000/svg">
<rect width="98" height="98" rx="16" fill="#121230"/>
<mask id="mask0_1595_7062" style="mask-type:alpha" maskUnits="userSpaceOnUse" x="0" y="0" width="99" height="98">
<rect x="0.000976562" width="98" height="98" rx="16" fill="#121230"/>
</mask>
<g mask="url(#mask0_1595_7062)">
<path d="M111.927 57.0882C115.228 59.527 118.043 62.1914 120.373 65.0801C122.754 67.9001 124.376 70.955 125.24 74.2454C126.173 77.5867 126.244 81.0876 125.453 84.7468C124.663 88.4061 122.746 92.2944 119.704 96.4115C116.966 100.117 113.769 103.006 110.112 105.077C106.575 107.131 102.516 108.163 97.9368 108.174C99.1485 110.131 100.071 112.191 100.703 114.356C101.405 116.571 101.723 118.875 101.657 121.266C101.66 123.708 101.184 126.222 100.231 128.806C99.3467 131.441 97.9154 134.097 95.9379 136.773C92.8957 140.89 89.6907 143.932 86.3235 145.9C82.9563 147.867 79.4881 148.964 75.9189 149.191C72.4184 149.468 68.9201 148.952 65.4238 147.641C61.9277 146.331 58.5293 144.457 55.2291 142.018L-7.00104 96.0331L4.88489 79.9482L15.3401 87.674L52.1865 37.8108L41.7313 30.0849L53.6172 14L111.927 57.0882ZM45.7633 90.3082L37.0172 102.144L59.2941 118.606C62.3195 120.841 65.3361 122.009 68.3441 122.111C71.3522 122.212 74.0482 120.65 76.4313 117.425C77.4454 116.053 78.0234 114.623 78.1651 113.137C78.3576 111.582 78.1912 110.08 77.6669 108.632C77.262 107.165 76.5931 105.769 75.6597 104.443C74.7263 103.117 73.682 101.868 72.5277 100.697L45.7633 90.3082ZM58.7693 72.7074L85.6696 83.992C88.4128 85.1704 90.8759 85.5056 93.0588 84.9971C95.2417 84.4885 96.9418 83.41 98.1587 81.7631C99.4769 79.9791 99.7443 78.1078 98.9597 76.1489C98.1749 74.1899 96.8882 72.5503 95.1006 71.2293L72.3076 54.3865L58.7693 72.7074Z" fill="url(#paint0_linear_1595_7062)" fill-opacity="0.21"/>
</g>
<path d="M35.0391 53C36.3428 53 37.5653 53.1515 38.7061 53.4551C39.8469 53.7311 40.8386 54.2142 41.6807 54.9043C42.5499 55.5943 43.2288 56.4917 43.7178 57.5957C44.2067 58.6998 44.4511 60.0802 44.4512 61.7363C44.4512 63.2269 44.18 64.5938 43.6367 65.8359C43.1206 67.0504 42.2783 68.0992 41.1104 68.9824C41.7894 69.2584 42.414 69.618 42.9844 70.0596C43.5819 70.5012 44.0986 71.039 44.5332 71.6738C44.9949 72.3087 45.3473 73.0545 45.5918 73.9102C45.8634 74.7658 46 75.7321 46 76.8086C46 78.4645 45.7554 79.8721 45.2666 81.0312C44.7776 82.1906 44.0978 83.1434 43.2285 83.8887C42.3865 84.6339 41.3947 85.1717 40.2539 85.5029C39.113 85.8341 37.8907 86 36.5869 86H12V79.5293H16.1318V59.4707H12V53H35.0391ZM24.4033 74.3652V79.127H33.2051C34.4003 79.1269 35.3919 78.8509 36.1797 78.2988C36.9674 77.7467 37.3613 76.8217 37.3613 75.5244C37.3613 74.9724 37.2386 74.4892 36.9941 74.0752C36.7497 73.6337 36.4239 73.275 36.0166 72.999C35.6364 72.6954 35.2018 72.4605 34.7129 72.2949C34.2239 72.1293 33.7212 72.0047 33.2051 71.9219L24.4033 74.3652ZM24.4033 67.2852L33.4092 65.0488C34.3325 64.828 35.0256 64.4416 35.4873 63.8896C35.949 63.3376 36.1797 62.7298 36.1797 62.0674C36.1796 61.35 35.8943 60.8119 35.3242 60.4531C34.7539 60.0944 34.1153 59.9151 33.4092 59.915H24.4033V67.2852Z" fill="white"/>
<path d="M12.8 37.28H15.97C16.5567 37.28 17.0667 37.38 17.5 37.58C17.94 37.7733 18.3033 38.0433 18.59 38.39C18.8833 38.73 19.1 39.1367 19.24 39.61C19.38 40.0833 19.45 40.5967 19.45 41.15C19.45 41.7233 19.36 42.25 19.18 42.73C19 43.2033 18.74 43.6133 18.4 43.96C18.0667 44.3 17.6567 44.5667 17.17 44.76C16.69 44.9533 16.1467 45.05 15.54 45.05H12.8V37.28ZM13.8 44.23H15.52C15.98 44.23 16.39 44.15 16.75 43.99C17.11 43.8233 17.4167 43.6 17.67 43.32C17.9233 43.0333 18.1167 42.7033 18.25 42.33C18.3833 41.95 18.45 41.5467 18.45 41.12C18.45 40.7 18.3967 40.3067 18.29 39.94C18.1833 39.5667 18.02 39.2467 17.8 38.98C17.58 38.7067 17.3 38.4933 16.96 38.34C16.6267 38.18 16.2267 38.1 15.76 38.1H13.8V44.23ZM23.4665 44.54C23.7598 44.54 24.0398 44.4833 24.3065 44.37C24.5798 44.2567 24.8165 44.0967 25.0165 43.89C25.2232 43.6833 25.3865 43.4367 25.5065 43.15C25.6332 42.8633 25.6965 42.5467 25.6965 42.2C25.6965 41.84 25.6298 41.5167 25.4965 41.23C25.3632 40.9367 25.1898 40.69 24.9765 40.49C24.7698 40.2833 24.5332 40.1233 24.2665 40.01C23.9998 39.8967 23.7332 39.84 23.4665 39.84C23.1932 39.84 22.9232 39.8967 22.6565 40.01C22.3965 40.1233 22.1598 40.2867 21.9465 40.5C21.7332 40.7067 21.5598 40.9567 21.4265 41.25C21.2998 41.5367 21.2365 41.8533 21.2365 42.2C21.2365 42.5467 21.2965 42.8633 21.4165 43.15C21.5365 43.4367 21.6998 43.6833 21.9065 43.89C22.1132 44.0967 22.3498 44.2567 22.6165 44.37C22.8898 44.4833 23.1732 44.54 23.4665 44.54ZM20.2465 42.2C20.2465 41.7133 20.3332 41.2733 20.5065 40.88C20.6865 40.4867 20.9265 40.1533 21.2265 39.88C21.5265 39.6 21.8698 39.3867 22.2565 39.24C22.6432 39.0933 23.0465 39.02 23.4665 39.02C23.8865 39.02 24.2898 39.0933 24.6765 39.24C25.0632 39.3867 25.4032 39.6 25.6965 39.88C25.9965 40.1533 26.2365 40.4867 26.4165 40.88C26.5965 41.2733 26.6865 41.7133 26.6865 42.2C26.6865 42.6867 26.5965 43.1233 26.4165 43.51C26.2365 43.8967 25.9965 44.2267 25.6965 44.5C25.4032 44.7733 25.0632 44.9833 24.6765 45.13C24.2898 45.2767 23.8865 45.35 23.4665 45.35C23.0465 45.35 22.6432 45.2767 22.2565 45.13C21.8698 44.9833 21.5265 44.7733 21.2265 44.5C20.9265 44.2267 20.6865 43.8967 20.5065 43.51C20.3332 43.1233 20.2465 42.6867 20.2465 42.2ZM30.8102 44.54C31.1036 44.54 31.3836 44.4833 31.6502 44.37C31.9236 44.2567 32.1602 44.0967 32.3602 43.89C32.5669 43.6833 32.7302 43.4367 32.8502 43.15C32.9769 42.8633 33.0402 42.5467 33.0402 42.2C33.0402 41.84 32.9736 41.5167 32.8402 41.23C32.7069 40.9367 32.5336 40.69 32.3202 40.49C32.1136 40.2833 31.8769 40.1233 31.6102 40.01C31.3436 39.8967 31.0769 39.84 30.8102 39.84C30.5369 39.84 30.2669 39.8967 30.0002 40.01C29.7402 40.1233 29.5036 40.2867 29.2902 40.5C29.0769 40.7067 28.9036 40.9567 28.7702 41.25C28.6436 41.5367 28.5802 41.8533 28.5802 42.2C28.5802 42.5467 28.6402 42.8633 28.7602 43.15C28.8802 43.4367 29.0436 43.6833 29.2502 43.89C29.4569 44.0967 29.6936 44.2567 29.9602 44.37C30.2336 44.4833 30.5169 44.54 30.8102 44.54ZM27.5902 42.2C27.5902 41.7133 27.6769 41.2733 27.8502 40.88C28.0302 40.4867 28.2702 40.1533 28.5702 39.88C28.8702 39.6 29.2136 39.3867 29.6002 39.24C29.9869 39.0933 30.3902 39.02 30.8102 39.02C31.2302 39.02 31.6336 39.0933 32.0202 39.24C32.4069 39.3867 32.7469 39.6 33.0402 39.88C33.3402 40.1533 33.5802 40.4867 33.7602 40.88C33.9402 41.2733 34.0302 41.7133 34.0302 42.2C34.0302 42.6867 33.9402 43.1233 33.7602 43.51C33.5802 43.8967 33.3402 44.2267 33.0402 44.5C32.7469 44.7733 32.4069 44.9833 32.0202 45.13C31.6336 45.2767 31.2302 45.35 30.8102 45.35C30.3902 45.35 29.9869 45.2767 29.6002 45.13C29.2136 44.9833 28.8702 44.7733 28.5702 44.5C28.2702 44.2267 28.0302 43.8967 27.8502 43.51C27.6769 43.1233 27.5902 42.6867 27.5902 42.2ZM38.8866 40.41C38.6532 40.25 38.3866 40.1167 38.0866 40.01C37.7932 39.8967 37.5132 39.84 37.2466 39.84C37.0532 39.84 36.8732 39.8567 36.7066 39.89C36.5466 39.9233 36.4032 39.9733 36.2766 40.04C36.1566 40.1067 36.0599 40.1933 35.9866 40.3C35.9199 40.4067 35.8866 40.53 35.8866 40.67C35.8866 40.89 35.9832 41.07 36.1766 41.21C36.3699 41.3433 36.6866 41.4667 37.1266 41.58C37.9199 41.7867 38.5066 42.0433 38.8866 42.35C39.2732 42.6567 39.4666 43.0733 39.4666 43.6C39.4666 44.14 39.2599 44.5667 38.8466 44.88C38.4399 45.1933 37.8666 45.35 37.1266 45.35C36.6866 45.35 36.2666 45.28 35.8666 45.14C35.4732 45.0067 35.0966 44.8167 34.7366 44.57L35.1366 43.79C35.2499 43.8833 35.3766 43.9733 35.5166 44.06C35.6566 44.1467 35.8066 44.2233 35.9666 44.29C36.1266 44.3633 36.2899 44.42 36.4566 44.46C36.6299 44.5 36.8032 44.52 36.9766 44.52C37.1699 44.52 37.3566 44.5067 37.5366 44.48C37.7166 44.4533 37.8732 44.4067 38.0066 44.34C38.1466 44.2733 38.2566 44.18 38.3366 44.06C38.4232 43.9467 38.4666 43.8033 38.4666 43.63C38.4666 43.4633 38.4299 43.32 38.3566 43.2C38.2899 43.08 38.1932 42.9767 38.0666 42.89C37.9466 42.8033 37.7999 42.73 37.6266 42.67C37.4599 42.6033 37.2766 42.54 37.0766 42.48C36.7432 42.3867 36.4399 42.2867 36.1666 42.18C35.8999 42.0733 35.6699 41.95 35.4766 41.81C35.2899 41.67 35.1432 41.5067 35.0366 41.32C34.9366 41.1267 34.8866 40.8967 34.8866 40.63C34.8866 40.3633 34.9399 40.13 35.0466 39.93C35.1532 39.73 35.3032 39.5633 35.4966 39.43C35.6899 39.2967 35.9199 39.1967 36.1866 39.13C36.4599 39.0567 36.7566 39.02 37.0766 39.02C37.5566 39.02 37.9666 39.0833 38.3066 39.21C38.6532 39.3367 38.9532 39.4867 39.2066 39.66L38.8866 40.41ZM43.2334 39.12C43.7801 39.12 44.2668 39.2167 44.6934 39.41C45.1201 39.6033 45.4668 39.88 45.7334 40.24L45.8234 39.32H46.7234V45.05H45.8234L45.7334 44.13C45.4668 44.49 45.1101 44.77 44.6634 44.97C44.2234 45.17 43.7501 45.2633 43.2434 45.25C42.8434 45.2433 42.4701 45.16 42.1234 45C41.7768 44.8467 41.4734 44.6333 41.2134 44.36C40.9534 44.0933 40.7468 43.7767 40.5934 43.41C40.4468 43.0433 40.3734 42.64 40.3734 42.2C40.3734 41.7533 40.4501 41.34 40.6034 40.96C40.7634 40.58 40.9734 40.2567 41.2334 39.99C41.4934 39.7167 41.7968 39.5033 42.1434 39.35C42.4901 39.1967 42.8534 39.12 43.2334 39.12ZM43.4734 44.43C43.8001 44.43 44.0934 44.3767 44.3534 44.27C44.6134 44.1633 44.8334 44.0133 45.0134 43.82C45.1934 43.62 45.3301 43.3833 45.4234 43.11C45.5234 42.8367 45.5734 42.5333 45.5734 42.2C45.5734 41.86 45.5234 41.55 45.4234 41.27C45.3301 40.99 45.1934 40.7533 45.0134 40.56C44.8334 40.36 44.6134 40.2067 44.3534 40.1C44.0934 39.9933 43.8001 39.94 43.4734 39.94C43.1734 39.94 42.8934 39.9933 42.6334 40.1C42.3801 40.2067 42.1601 40.36 41.9734 40.56C41.7868 40.7533 41.6401 40.99 41.5334 41.27C41.4268 41.55 41.3734 41.86 41.3734 42.2C41.3734 42.5333 41.4268 42.8367 41.5334 43.11C41.6401 43.3833 41.7868 43.6167 41.9734 43.81C42.1601 44.0033 42.3801 44.1533 42.6334 44.26C42.8934 44.3733 43.1734 44.43 43.4734 44.43ZM49.1899 40.08C49.4499 39.74 49.7633 39.4967 50.1299 39.35C50.5033 39.1967 50.8999 39.12 51.3199 39.12C51.7066 39.12 52.0566 39.18 52.3699 39.3C52.6833 39.42 52.9499 39.59 53.1699 39.81C53.3966 40.0233 53.5699 40.2833 53.6899 40.59C53.8099 40.89 53.8699 41.2233 53.8699 41.59V45.05H52.8699V41.86C52.8699 40.58 52.2666 39.94 51.0599 39.94C50.8533 39.94 50.6433 39.9767 50.4299 40.05C50.2233 40.1233 50.0299 40.2333 49.8499 40.38C49.6766 40.5267 49.5333 40.71 49.4199 40.93C49.3066 41.15 49.2399 41.4067 49.2199 41.7V45.05H48.2199V39.32H49.1199L49.1899 40.08Z" fill="#2D2D5A"/>
<defs>
<linearGradient id="paint0_linear_1595_7062" x1="96.6444" y1="45.7949" x2="36.0261" y2="127.828" gradientUnits="userSpaceOnUse">
<stop stop-color="white" stop-opacity="0.5"/>
<stop offset="1" stop-color="white" stop-opacity="0"/>
</linearGradient>
</defs>
</svg>
