<svg width="98" height="98" viewBox="0 0 98 98" fill="none" xmlns="http://www.w3.org/2000/svg">
<rect width="98" height="98" rx="16" fill="#FF6600"/>
<path d="M45.5947 60.4316H30.4248L28.4902 65.1885H44.1074L41.1348 73.2158H25.2256L23.291 77.9727H39.5L36.6758 85.999H12L21.9258 60.4316H16.3105L19.1348 52.999H48.4189L45.5947 60.4316Z" fill="white"/>
<path d="M18.27 45.05V40.76L13.8 41.98V45.05H12.8V37.28H13.8V41.19L18.27 39.97V37.28H19.27V45.05H18.27ZM23.126 39.12C23.6727 39.12 24.1593 39.2167 24.586 39.41C25.0127 39.6033 25.3593 39.88 25.626 40.24L25.716 39.32H26.616V45.05H25.716L25.626 44.13C25.3593 44.49 25.0027 44.77 24.556 44.97C24.116 45.17 23.6427 45.2633 23.136 45.25C22.736 45.2433 22.3627 45.16 22.016 45C21.6693 44.8467 21.366 44.6333 21.106 44.36C20.846 44.0933 20.6393 43.7767 20.486 43.41C20.3393 43.0433 20.266 42.64 20.266 42.2C20.266 41.7533 20.3427 41.34 20.496 40.96C20.656 40.58 20.866 40.2567 21.126 39.99C21.386 39.7167 21.6893 39.5033 22.036 39.35C22.3827 39.1967 22.746 39.12 23.126 39.12ZM23.366 44.43C23.6927 44.43 23.986 44.3767 24.246 44.27C24.506 44.1633 24.726 44.0133 24.906 43.82C25.086 43.62 25.2227 43.3833 25.316 43.11C25.416 42.8367 25.466 42.5333 25.466 42.2C25.466 41.86 25.416 41.55 25.316 41.27C25.2227 40.99 25.086 40.7533 24.906 40.56C24.726 40.36 24.506 40.2067 24.246 40.1C23.986 39.9933 23.6927 39.94 23.366 39.94C23.066 39.94 22.786 39.9933 22.526 40.1C22.2727 40.2067 22.0527 40.36 21.866 40.56C21.6793 40.7533 21.5327 40.99 21.426 41.27C21.3193 41.55 21.266 41.86 21.266 42.2C21.266 42.5333 21.3193 42.8367 21.426 43.11C21.5327 43.3833 21.6793 43.6167 21.866 43.81C22.0527 44.0033 22.2727 44.1533 22.526 44.26C22.786 44.3733 23.066 44.43 23.366 44.43ZM29.0825 40.08C29.3425 39.74 29.6558 39.4967 30.0225 39.35C30.3958 39.1967 30.7925 39.12 31.2125 39.12C31.5992 39.12 31.9492 39.18 32.2625 39.3C32.5758 39.42 32.8425 39.59 33.0625 39.81C33.2892 40.0233 33.4625 40.2833 33.5825 40.59C33.7025 40.89 33.7625 41.2233 33.7625 41.59V45.05H32.7625V41.86C32.7625 40.58 32.1592 39.94 30.9525 39.94C30.7458 39.94 30.5358 39.9767 30.3225 40.05C30.1158 40.1233 29.9225 40.2333 29.7425 40.38C29.5692 40.5267 29.4258 40.71 29.3125 40.93C29.1992 41.15 29.1325 41.4067 29.1125 41.7V45.05H28.1125V39.32H29.0125L29.0825 40.08ZM39.1182 39.32L40.5682 43.61L41.9082 39.32H42.8582L41.0182 45.05H40.1682L38.6982 40.74L37.2382 45.05H36.3882L34.5482 39.32H35.4982L36.8382 43.61L38.2882 39.32H39.1182ZM44.8742 40.05C45.1342 39.7233 45.4442 39.4867 45.8042 39.34C46.1709 39.1933 46.5609 39.12 46.9742 39.12C47.3609 39.12 47.7109 39.18 48.0242 39.3C48.3376 39.42 48.6042 39.59 48.8242 39.81C49.0509 40.0233 49.2242 40.2833 49.3442 40.59C49.4642 40.89 49.5242 41.2233 49.5242 41.59V45.05H48.5242V41.86C48.5242 40.58 47.9209 39.94 46.7142 39.94C46.5076 39.94 46.2976 39.9767 46.0842 40.05C45.8776 40.1233 45.6842 40.2333 45.5042 40.38C45.3309 40.5267 45.1876 40.71 45.0742 40.93C44.9609 41.15 44.8942 41.4067 44.8742 41.7V45.05H43.8742V37.28H44.8742V40.05ZM53.3799 39.12C53.9266 39.12 54.4133 39.2167 54.8399 39.41C55.2666 39.6033 55.6133 39.88 55.8799 40.24L55.9699 39.32H56.8699V45.05H55.9699L55.8799 44.13C55.6133 44.49 55.2566 44.77 54.8099 44.97C54.3699 45.17 53.8966 45.2633 53.3899 45.25C52.9899 45.2433 52.6166 45.16 52.2699 45C51.9233 44.8467 51.6199 44.6333 51.3599 44.36C51.0999 44.0933 50.8933 43.7767 50.7399 43.41C50.5933 43.0433 50.5199 42.64 50.5199 42.2C50.5199 41.7533 50.5966 41.34 50.7499 40.96C50.9099 40.58 51.1199 40.2567 51.3799 39.99C51.6399 39.7167 51.9433 39.5033 52.2899 39.35C52.6366 39.1967 52.9999 39.12 53.3799 39.12ZM53.6199 44.43C53.9466 44.43 54.2399 44.3767 54.4999 44.27C54.7599 44.1633 54.9799 44.0133 55.1599 43.82C55.3399 43.62 55.4766 43.3833 55.5699 43.11C55.6699 42.8367 55.7199 42.5333 55.7199 42.2C55.7199 41.86 55.6699 41.55 55.5699 41.27C55.4766 40.99 55.3399 40.7533 55.1599 40.56C54.9799 40.36 54.7599 40.2067 54.4999 40.1C54.2399 39.9933 53.9466 39.94 53.6199 39.94C53.3199 39.94 53.0399 39.9933 52.7799 40.1C52.5266 40.2067 52.3066 40.36 52.1199 40.56C51.9333 40.7533 51.7866 40.99 51.6799 41.27C51.5733 41.55 51.5199 41.86 51.5199 42.2C51.5199 42.5333 51.5733 42.8367 51.6799 43.11C51.7866 43.3833 51.9333 43.6167 52.1199 43.81C52.3066 44.0033 52.5266 44.1533 52.7799 44.26C53.0399 44.3733 53.3199 44.43 53.6199 44.43Z" fill="#FF9B58"/>
<mask id="mask0_1595_7160" style="mask-type:alpha" maskUnits="userSpaceOnUse" x="0" y="0" width="98" height="98">
<rect width="98" height="98" rx="16" fill="#FF6600"/>
</mask>
<g mask="url(#mask0_1595_7160)">
<path d="M126.407 49.4454L94.138 40.5792L87.2414 49.5684L120.465 58.6969L109.449 74.0345L75.606 64.7357L68.7111 73.7223L103.186 83.1947L92.487 98.6192L40.0014 84.1983L76.058 35.6116L64.114 32.3298L74.4659 18.17L136.759 35.2855L126.407 49.4454Z" fill="url(#paint0_linear_1595_7160)" fill-opacity="0.15"/>
</g>
<defs>
<linearGradient id="paint0_linear_1595_7160" x1="98.024" y1="24.6428" x2="78.7364" y2="94.8411" gradientUnits="userSpaceOnUse">
<stop stop-color="white"/>
<stop offset="1" stop-color="#999999" stop-opacity="0.5"/>
</linearGradient>
</defs>
</svg>
