<svg width="98" height="98" viewBox="0 0 98 98" fill="none" xmlns="http://www.w3.org/2000/svg">
<rect width="98" height="98" rx="16" fill="#830024"/>
<mask id="mask0_1595_7091" style="mask-type:alpha" maskUnits="userSpaceOnUse" x="0" y="0" width="98" height="98">
<rect width="98" height="98" rx="16" fill="#C30452"/>
</mask>
<g mask="url(#mask0_1595_7091)">
<path d="M90.5462 56.0703L113.486 47.0452L108.415 45.695L111.85 32.791L147.983 42.4107L144.548 55.3147L139.484 53.9665L100.054 69.4786L123.359 117.414L135.445 120.631L132.01 133.535L95.8766 123.916L99.312 111.012L100.312 111.278L83.2124 76.105L79.1483 77.7051L59.2278 115.516L35.9998 109.332L74.3099 36.6174L66.9435 34.6562L70.3789 21.7522L80.6954 24.4987L80.6959 24.4968L103.924 30.6808L90.5462 56.0703Z" fill="url(#paint0_linear_1595_7091)" fill-opacity="0.1"/>
</g>
<path d="M17.25 45.05L13.8 41.45V45.05H12.8V37.28H13.8V40.49L17.2 37.28H18.5L14.63 40.94L18.56 45.05H17.25ZM20.4678 37.28V45.05H19.4678V37.28H20.4678ZM26.2499 38.84L24.6899 45.05H23.7099L21.5599 37.28H22.5299L24.1999 43.48L25.7499 37.28H26.7599L28.2999 43.48L29.9799 37.28H30.9499L28.7999 45.05H27.8199L26.2499 38.84ZM31.3891 41.15C31.3891 40.5233 31.4924 39.9567 31.6991 39.45C31.9124 38.9433 32.1991 38.5167 32.5591 38.17C32.9191 37.8167 33.3357 37.5467 33.8091 37.36C34.2824 37.1667 34.7857 37.07 35.3191 37.07C35.8591 37.07 36.3657 37.1667 36.8391 37.36C37.3191 37.5467 37.7357 37.8167 38.0891 38.17C38.4491 38.5167 38.7324 38.9433 38.9391 39.45C39.1524 39.9567 39.2591 40.5233 39.2591 41.15C39.2591 41.7833 39.1524 42.3533 38.9391 42.86C38.7324 43.3667 38.4491 43.7967 38.0891 44.15C37.7357 44.5033 37.3191 44.7733 36.8391 44.96C36.3657 45.1533 35.8591 45.25 35.3191 45.25C34.7857 45.25 34.2824 45.1533 33.8091 44.96C33.3357 44.7733 32.9191 44.5033 32.5591 44.15C32.1991 43.7967 31.9124 43.3667 31.6991 42.86C31.4924 42.3533 31.3891 41.7833 31.3891 41.15ZM32.3891 41.15C32.3891 41.6833 32.4691 42.1533 32.6291 42.56C32.7957 42.9667 33.0157 43.31 33.2891 43.59C33.5624 43.87 33.8724 44.08 34.2191 44.22C34.5724 44.3667 34.9391 44.44 35.3191 44.44C35.6991 44.44 36.0657 44.3667 36.4191 44.22C36.7724 44.08 37.0857 43.87 37.3591 43.59C37.6391 43.31 37.8591 42.9667 38.0191 42.56C38.1857 42.1533 38.2691 41.6833 38.2691 41.15C38.2691 40.63 38.1824 40.1667 38.0091 39.76C37.8357 39.3533 37.6091 39.0133 37.3291 38.74C37.0491 38.46 36.7324 38.25 36.3791 38.11C36.0257 37.9633 35.6724 37.89 35.3191 37.89C34.9657 37.89 34.6124 37.9633 34.2591 38.11C33.9124 38.25 33.5991 38.46 33.3191 38.74C33.0457 39.0133 32.8224 39.3533 32.6491 39.76C32.4757 40.1667 32.3891 40.63 32.3891 41.15ZM40.1684 41.15C40.1684 40.5233 40.2717 39.9567 40.4784 39.45C40.6917 38.9433 40.9784 38.5167 41.3384 38.17C41.6984 37.8167 42.115 37.5467 42.5884 37.36C43.0617 37.1667 43.565 37.07 44.0984 37.07C44.6384 37.07 45.145 37.1667 45.6184 37.36C46.0984 37.5467 46.515 37.8167 46.8684 38.17C47.2284 38.5167 47.5117 38.9433 47.7184 39.45C47.9317 39.9567 48.0384 40.5233 48.0384 41.15C48.0384 41.7833 47.9317 42.3533 47.7184 42.86C47.5117 43.3667 47.2284 43.7967 46.8684 44.15C46.515 44.5033 46.0984 44.7733 45.6184 44.96C45.145 45.1533 44.6384 45.25 44.0984 45.25C43.565 45.25 43.0617 45.1533 42.5884 44.96C42.115 44.7733 41.6984 44.5033 41.3384 44.15C40.9784 43.7967 40.6917 43.3667 40.4784 42.86C40.2717 42.3533 40.1684 41.7833 40.1684 41.15ZM41.1684 41.15C41.1684 41.6833 41.2484 42.1533 41.4084 42.56C41.575 42.9667 41.795 43.31 42.0684 43.59C42.3417 43.87 42.6517 44.08 42.9984 44.22C43.3517 44.3667 43.7184 44.44 44.0984 44.44C44.4784 44.44 44.845 44.3667 45.1984 44.22C45.5517 44.08 45.865 43.87 46.1384 43.59C46.4184 43.31 46.6384 42.9667 46.7984 42.56C46.965 42.1533 47.0484 41.6833 47.0484 41.15C47.0484 40.63 46.9617 40.1667 46.7884 39.76C46.615 39.3533 46.3884 39.0133 46.1084 38.74C45.8284 38.46 45.5117 38.25 45.1584 38.11C44.805 37.9633 44.4517 37.89 44.0984 37.89C43.745 37.89 43.3917 37.9633 43.0384 38.11C42.6917 38.25 42.3784 38.46 42.0984 38.74C41.825 39.0133 41.6017 39.3533 41.4284 39.76C41.255 40.1667 41.1684 40.63 41.1684 41.15ZM50.343 37.28L53.453 43.88L56.573 37.28H57.573V45.05H56.573V39.28L53.863 45.05H53.053L50.343 39.28V45.05H49.343V37.28H50.343Z" fill="#B64E6B"/>
<rect x="19.542" y="67.4653" width="24.3847" height="5.63407" transform="rotate(-36.3858 19.542 67.4653)" fill="white"/>
<path d="M28.0283 53.0005L20.4856 85.9998L12.0001 85.9998L19.5428 53.0005L28.0283 53.0005Z" fill="white"/>
<rect width="4.71419" height="3.77135" transform="matrix(-4.37114e-08 1 1 4.37114e-08 15.7715 53.0005)" fill="white"/>
<rect width="4.71419" height="13.1997" transform="matrix(-4.37114e-08 1 1 4.37114e-08 30.9189 53.0005)" fill="white"/>
<rect width="23.3459" height="6.36977" transform="matrix(0.653885 0.756594 0.756594 -0.653885 22.6436 67.55)" fill="white"/>
<rect x="33.748" y="85.5367" width="4.71419" height="13.1997" transform="rotate(-90 33.748 85.5367)" fill="white"/>
<defs>
<linearGradient id="paint0_linear_1595_7091" x1="107.885" y1="31.7354" x2="83.836" y2="122.067" gradientUnits="userSpaceOnUse">
<stop stop-color="white"/>
<stop offset="1" stop-color="#999999" stop-opacity="0.5"/>
</linearGradient>
</defs>
</svg>
