<svg width="98" height="98" viewBox="0 0 98 98" fill="none" xmlns="http://www.w3.org/2000/svg">
<rect width="98" height="98" rx="16" fill="black"/>
<mask id="mask0_1595_7075" style="mask-type:alpha" maskUnits="userSpaceOnUse" x="0" y="0" width="98" height="98">
<rect width="98" height="98" rx="16" fill="black"/>
</mask>
<g mask="url(#mask0_1595_7075)">
<path d="M82.0051 50.6295C83.9079 61.4437 75.5559 86.548 71.9521 96.6461C71.5906 97.659 72.8896 98.4813 73.6556 97.7264L107.174 64.6938C107.512 64.3613 108.036 64.3111 108.43 64.5736L125.903 76.2067C126.302 76.472 126.456 76.9827 126.271 77.4246L108.099 120.921C107.673 121.941 109.033 122.871 109.836 122.112C117.242 115.114 134.268 100.194 149.387 95.4913C167.34 89.9072 194.295 104.665 194.295 104.665C194.295 104.665 173.72 103.95 154.553 116.467C137.629 127.519 130.057 145.65 120.714 152.926C115.537 156.957 110.66 159.4 106.639 160.881C100.061 163.303 93.0811 161.087 87.2463 157.202L77.6666 150.824C77.2689 150.56 77.114 150.05 77.2971 149.609L96.9039 102.322C97.3247 101.307 96.0388 100.454 95.2678 101.237L59.375 137.672C59.0387 138.014 58.5073 138.069 58.1084 137.803L50.8046 132.94C43.6283 128.162 38.173 120.938 37.8691 112.322C37.7229 108.177 37.9444 103.398 38.9717 98.5033C41.9076 84.5153 57.2316 68.3343 59.5552 53.2197C61.5094 40.508 55.1133 12 55.1133 12C55.1133 12 79.5943 36.9288 82.0051 50.6295Z" fill="url(#paint0_linear_1595_7075)" fill-opacity="0.25"/>
</g>
<path d="M37.5894 58L41.3444 72.6374L45.3775 58H54L45.7947 86H37.543L33 68.5295L28.457 86H20.2053L12 58H20.6225L24.6093 72.6374L28.4106 58H37.5894Z" fill="white"/>
<path d="M17.25 45.05L13.8 41.45V45.05H12.8V37.28H13.8V40.49L17.2 37.28H18.5L14.63 40.94L18.56 45.05H17.25ZM22.8878 38.1V45.05H21.8878V38.1H19.1578V37.28H25.6178V38.1H22.8878Z" fill="#3C3C3C"/>
<defs>
<linearGradient id="paint0_linear_1595_7075" x1="124.704" y1="58.3326" x2="67.591" y2="144.116" gradientUnits="userSpaceOnUse">
<stop stop-color="white" stop-opacity="0.5"/>
<stop offset="1" stop-color="#999999" stop-opacity="0"/>
</linearGradient>
</defs>
</svg>
