<svg width="98" height="98" viewBox="0 0 98 98" fill="none" xmlns="http://www.w3.org/2000/svg">
<rect width="98" height="98" rx="16" fill="#C30452"/>
<mask id="mask0_1595_7082" style="mask-type:alpha" maskUnits="userSpaceOnUse" x="0" y="0" width="98" height="98">
<rect width="98" height="98" rx="16" fill="#C30452"/>
</mask>
<g mask="url(#mask0_1595_7082)">
<path d="M71.3191 22.385C108.98 48.0492 121.814 97.8527 101.249 138.522L28.2152 95.4185L71.3191 22.385Z" stroke="url(#paint0_linear_1595_7082)" stroke-opacity="0.21" stroke-width="12"/>
</g>
<path d="M12.8 37.28H13.8V44.23H18.21V45.05H12.8V37.28ZM22.6735 45.25C22.1468 45.25 21.6435 45.1533 21.1635 44.96C20.6835 44.7733 20.2602 44.5 19.8935 44.14C19.5335 43.7867 19.2435 43.36 19.0235 42.86C18.8102 42.3533 18.7035 41.7867 18.7035 41.16C18.7035 40.5667 18.8035 40.02 19.0035 39.52C19.2102 39.02 19.4902 38.59 19.8435 38.23C20.1968 37.8633 20.6168 37.58 21.1035 37.38C21.5902 37.1733 22.1135 37.07 22.6735 37.07C23.3602 37.07 23.9935 37.2333 24.5735 37.56C25.1602 37.88 25.6468 38.33 26.0335 38.91L25.3135 39.43C25.0335 38.9767 24.6635 38.6067 24.2035 38.32C23.7502 38.0267 23.2302 37.88 22.6435 37.88C22.2235 37.88 21.8335 37.9667 21.4735 38.14C21.1135 38.3133 20.8035 38.55 20.5435 38.85C20.2835 39.1433 20.0768 39.49 19.9235 39.89C19.7768 40.2833 19.7035 40.7067 19.7035 41.16C19.7035 41.62 19.7835 42.05 19.9435 42.45C20.1035 42.85 20.3202 43.1967 20.5935 43.49C20.8668 43.7833 21.1802 44.0133 21.5335 44.18C21.8935 44.3467 22.2702 44.43 22.6635 44.43C23.0835 44.43 23.4568 44.3633 23.7835 44.23C24.1168 44.1033 24.3968 43.9233 24.6235 43.69C24.8568 43.4567 25.0335 43.1767 25.1535 42.85C25.2802 42.5233 25.3435 42.16 25.3435 41.76H22.5135V40.94H26.3335V41.4C26.3335 41.9533 26.2502 42.4667 26.0835 42.94C25.9235 43.4067 25.6868 43.81 25.3735 44.15C25.0668 44.4967 24.6835 44.7667 24.2235 44.96C23.7702 45.1533 23.2535 45.25 22.6735 45.25Z" fill="#CB5083"/>
<rect x="11.999" y="53" width="30.6429" height="9.42857" fill="white"/>
<rect x="32.0342" y="53" width="33" height="9.42857" transform="rotate(90 32.0342 53)" fill="white"/>
<defs>
<linearGradient id="paint0_linear_1595_7082" x1="111.069" y1="38.6512" x2="61.7664" y2="122.187" gradientUnits="userSpaceOnUse">
<stop stop-color="white"/>
<stop offset="1" stop-color="#999999" stop-opacity="0"/>
</linearGradient>
</defs>
</svg>
