<svg width="98" height="98" viewBox="0 0 98 98" fill="none" xmlns="http://www.w3.org/2000/svg">
<rect width="98" height="98" rx="16" fill="#BF022D"/>
<path d="M39.0508 56.8142C36.5508 54.7349 33.492 53.4406 30.2588 53.094C27.0256 52.7474 23.7621 53.3638 20.878 54.8659C17.994 56.368 15.6181 58.6888 14.0488 61.5368C12.4794 64.3848 11.7866 67.633 12.0573 70.8734C12.3279 74.1139 13.55 77.2021 15.5701 79.7503C17.5902 82.2985 20.3182 84.1929 23.4114 85.1957C26.5047 86.1986 29.8253 86.2651 32.9562 85.3869C36.0871 84.5087 38.8887 82.7249 41.0092 80.2597L35.5981 75.6053C34.3949 77.0042 32.8051 78.0163 31.0286 78.5147C29.252 79.013 27.3678 78.9753 25.6126 78.4062C23.8574 77.8372 22.3095 76.7622 21.1632 75.3163C20.017 73.8704 19.3235 72.1181 19.1699 70.2793C19.0163 68.4406 19.4095 66.5975 20.3 64.9815C21.1905 63.3654 22.5386 62.0485 24.1751 61.1962C25.8116 60.3439 27.6634 59.9941 29.498 60.1908C31.3326 60.3875 33.0682 61.1218 34.4868 62.3017L39.0508 56.8142Z" fill="white"/>
<path d="M34 69H41V80.2604L34 81V69Z" fill="white"/>
<rect x="41" y="68" width="5" height="11" transform="rotate(90 41 68)" fill="white"/>
<mask id="mask0_1595_7122" style="mask-type:alpha" maskUnits="userSpaceOnUse" x="0" y="0" width="98" height="98">
<rect width="98" height="98" rx="16" fill="#BF022D"/>
</mask>
<g mask="url(#mask0_1595_7122)">
<path d="M106.935 32.8768C101.62 27.0553 94.7025 22.9336 87.0527 21.0303C79.403 19.1272 71.3613 19.5277 63.9379 22.1799L69.7596 38.4738C73.9718 36.969 78.5346 36.7423 82.8753 37.8222C87.216 38.9021 91.141 41.2407 94.1571 44.544C97.173 47.8472 99.1464 51.9678 99.8281 56.3885C100.51 60.8093 99.8697 65.3333 97.9889 69.3917C96.108 73.45 93.0701 76.8624 89.2564 79.1998C85.4426 81.5372 81.0227 82.6949 76.5527 82.5289C72.083 82.3628 67.7621 80.8796 64.1325 78.2658C61.9388 76.6861 60.0571 74.7357 58.5637 72.5158L61.9581 63.2352L71.0653 66.5662L75.2289 55.1827L50.1854 46.0229L49.3529 48.2992L49.3519 48.2989L39.9818 73.9174L39.9553 73.9274C42.7301 81.3058 47.6235 87.7002 54.0203 92.3068C60.4172 96.9134 68.0333 99.5279 75.9109 99.8205C83.7883 100.113 91.5767 98.0713 98.2977 93.9521C105.019 89.8329 110.372 83.8192 113.687 76.6671C117.002 69.5149 118.13 61.5424 116.929 53.7515C115.727 45.9607 112.251 38.6982 106.935 32.8768Z" fill="url(#paint0_linear_1595_7122)" fill-opacity="0.21"/>
</g>
<path d="M12.8 37.28H13.8V44.23H18.21V45.05H12.8V37.28ZM18.7035 41.15C18.7035 40.5233 18.8068 39.9567 19.0135 39.45C19.2268 38.9433 19.5135 38.5167 19.8735 38.17C20.2335 37.8167 20.6502 37.5467 21.1235 37.36C21.5968 37.1667 22.1002 37.07 22.6335 37.07C23.1735 37.07 23.6802 37.1667 24.1535 37.36C24.6335 37.5467 25.0502 37.8167 25.4035 38.17C25.7635 38.5167 26.0468 38.9433 26.2535 39.45C26.4668 39.9567 26.5735 40.5233 26.5735 41.15C26.5735 41.7833 26.4668 42.3533 26.2535 42.86C26.0468 43.3667 25.7635 43.7967 25.4035 44.15C25.0502 44.5033 24.6335 44.7733 24.1535 44.96C23.6802 45.1533 23.1735 45.25 22.6335 45.25C22.1002 45.25 21.5968 45.1533 21.1235 44.96C20.6502 44.7733 20.2335 44.5033 19.8735 44.15C19.5135 43.7967 19.2268 43.3667 19.0135 42.86C18.8068 42.3533 18.7035 41.7833 18.7035 41.15ZM19.7035 41.15C19.7035 41.6833 19.7835 42.1533 19.9435 42.56C20.1102 42.9667 20.3302 43.31 20.6035 43.59C20.8768 43.87 21.1868 44.08 21.5335 44.22C21.8868 44.3667 22.2535 44.44 22.6335 44.44C23.0135 44.44 23.3802 44.3667 23.7335 44.22C24.0868 44.08 24.4002 43.87 24.6735 43.59C24.9535 43.31 25.1735 42.9667 25.3335 42.56C25.5002 42.1533 25.5835 41.6833 25.5835 41.15C25.5835 40.63 25.4968 40.1667 25.3235 39.76C25.1502 39.3533 24.9235 39.0133 24.6435 38.74C24.3635 38.46 24.0468 38.25 23.6935 38.11C23.3402 37.9633 22.9868 37.89 22.6335 37.89C22.2802 37.89 21.9268 37.9633 21.5735 38.11C21.2268 38.25 20.9135 38.46 20.6335 38.74C20.3602 39.0133 20.1368 39.3533 19.9635 39.76C19.7902 40.1667 19.7035 40.63 19.7035 41.15ZM31.2081 38.1V45.05H30.2081V38.1H27.4781V37.28H33.9381V38.1H31.2081ZM38.5616 38.1V45.05H37.5616V38.1H34.8316V37.28H41.2916V38.1H38.5616ZM47.7198 40.67V41.49H43.3898V44.24H48.0098V45.05H42.3898V37.28H47.9098V38.1H43.3898V40.67H47.7198Z" fill="#F16B82"/>
<defs>
<linearGradient id="paint0_linear_1595_7122" x1="112.671" y1="46.3088" x2="49.9351" y2="73.5879" gradientUnits="userSpaceOnUse">
<stop stop-color="white"/>
<stop offset="1" stop-color="#999999" stop-opacity="0.5"/>
</linearGradient>
</defs>
</svg>
