<svg width="98" height="98" viewBox="0 0 98 98" fill="none" xmlns="http://www.w3.org/2000/svg">
<rect width="98" height="98" rx="16" fill="#305289"/>
<mask id="mask0_1595_7055" style="mask-type:alpha" maskUnits="userSpaceOnUse" x="0" y="0" width="99" height="98">
<rect x="0.000976562" width="98" height="98" rx="16" fill="#305289"/>
</mask>
<g mask="url(#mask0_1595_7055)">
<path d="M49.4619 11L108.499 48.218C114.451 51.97 119.059 56.469 122.323 61.7148C125.708 66.9334 127.824 72.5351 128.671 78.5198C129.519 84.5045 129.094 90.7156 127.398 97.1531C125.821 103.563 123.061 109.896 119.118 116.151C115.035 122.627 110.322 127.986 104.979 132.227C99.7551 136.441 94.077 139.34 87.9443 140.924C81.8851 142.555 75.5009 142.747 68.7917 141.499C62.1096 140.372 55.2784 137.608 48.298 133.207L0.888389 103.32C0.888389 103.32 15.544 101.364 22.4631 90.3889C32.229 74.8976 45.7184 53.5001 53.9867 40.3843C61.6066 28.2971 49.4619 11 49.4619 11ZM45.388 104.841L58.9446 113.387C62.545 115.657 66.0853 116.963 69.5656 117.306C73.1657 117.622 76.5666 117.195 79.7682 116.025C83.0162 114.782 86.0553 112.893 88.8855 110.358C91.7157 107.823 94.221 104.827 96.4015 101.368C98.5355 97.9826 100.016 94.494 100.843 90.9019C101.716 87.2362 101.857 83.6742 101.265 80.2158C100.746 76.8038 99.4485 73.5689 97.3716 70.5114C95.341 67.3802 92.4521 64.6335 88.7048 62.2711L76.9116 54.8365L45.388 104.841Z" fill="url(#paint0_linear_1595_7055)" fill-opacity="0.21"/>
</g>
<path d="M10 54H31.2403C33.3816 54 35.2982 54.4149 36.99 55.2447C38.7084 56.0477 40.1623 57.1585 41.3519 58.5772C42.5415 59.9958 43.4403 61.6821 44.0483 63.6361C44.6828 65.5634 45 67.6646 45 69.9398C45 72.2953 44.6563 74.4634 43.969 76.4442C43.3081 78.3982 42.3168 80.0845 40.995 81.5031C39.6997 82.9218 38.0871 84.0192 36.1573 84.7955C34.254 85.5985 32.0466 86 29.5352 86H12.4783C12.4783 86 15.9342 83.0862 15.9342 79.0941C15.9342 73.4595 15.9342 65.6765 15.9342 60.9059C15.9342 56.5094 10 54 10 54ZM24.182 79.0941H29.0594C30.3547 79.0941 31.4783 78.8532 32.4299 78.3714C33.408 77.8628 34.2143 77.1936 34.8488 76.3639C35.4832 75.5073 35.9591 74.5169 36.2763 73.3927C36.5935 72.2685 36.7521 71.0774 36.7521 69.8193C36.7521 68.588 36.5671 67.4371 36.197 66.3664C35.8269 65.2689 35.285 64.3187 34.5712 63.5157C33.8839 62.7127 33.0247 62.0836 31.9937 61.6286C30.9628 61.1468 29.7732 60.9059 28.425 60.9059H24.182V79.0941Z" fill="white"/>
<path d="M11.77 41.08C12.03 40.74 12.3433 40.4967 12.71 40.35C13.0833 40.1967 13.48 40.12 13.9 40.12C14.2867 40.12 14.6367 40.18 14.95 40.3C15.2633 40.42 15.53 40.59 15.75 40.81C15.9767 41.0233 16.15 41.2833 16.27 41.59C16.39 41.89 16.45 42.2233 16.45 42.59V46.05H15.45V42.86C15.45 41.58 14.8467 40.94 13.64 40.94C13.4333 40.94 13.2233 40.9767 13.01 41.05C12.8033 41.1233 12.61 41.2333 12.43 41.38C12.2567 41.5267 12.1133 41.71 12 41.93C11.8867 42.15 11.82 42.4067 11.8 42.7V46.05H10.8V40.32H11.7L11.77 41.08ZM20.9331 40.84C20.6198 40.84 20.3198 40.8967 20.0331 41.01C19.7465 41.1233 19.4931 41.2833 19.2731 41.49C19.0531 41.6967 18.8765 41.9467 18.7431 42.24C18.6098 42.5267 18.5431 42.8433 18.5431 43.19C18.5431 43.5233 18.6065 43.8333 18.7331 44.12C18.8598 44.4 19.0298 44.6467 19.2431 44.86C19.4631 45.0667 19.7165 45.23 20.0031 45.35C20.2965 45.47 20.6065 45.53 20.9331 45.53C21.3131 45.53 21.6531 45.43 21.9531 45.23C22.2598 45.03 22.5231 44.7633 22.7431 44.43L23.4331 45.02C23.1265 45.4333 22.7431 45.7567 22.2831 45.99C21.8298 46.23 21.3331 46.35 20.7931 46.35C20.3398 46.35 19.9165 46.2667 19.5231 46.1C19.1298 45.94 18.7865 45.7167 18.4931 45.43C18.1998 45.15 17.9698 44.82 17.8031 44.44C17.6365 44.0533 17.5531 43.6367 17.5531 43.19C17.5531 42.7433 17.6398 42.33 17.8131 41.95C17.9865 41.5633 18.2198 41.2267 18.5131 40.94C18.8065 40.6533 19.1498 40.43 19.5431 40.27C19.9365 40.1033 20.3531 40.02 20.7931 40.02C21.2865 40.02 21.7731 40.13 22.2531 40.35C22.7331 40.57 23.1298 40.9 23.4431 41.34L22.7431 41.94C22.6498 41.8 22.5365 41.6667 22.4031 41.54C22.2698 41.4067 22.1231 41.29 21.9631 41.19C21.8098 41.0833 21.6431 41 21.4631 40.94C21.2898 40.8733 21.1131 40.84 20.9331 40.84Z" fill="#4771B4"/>
<defs>
<linearGradient id="paint0_linear_1595_7055" x1="98.1031" y1="41.6641" x2="42.6411" y2="129.641" gradientUnits="userSpaceOnUse">
<stop stop-color="white" stop-opacity="0.5"/>
<stop offset="1" stop-color="white" stop-opacity="0"/>
</linearGradient>
</defs>
</svg>
