<svg width="98" height="98" viewBox="0 0 98 98" fill="none" xmlns="http://www.w3.org/2000/svg">
<rect width="98" height="98" rx="16" fill="#064CA1"/>
<path d="M20.4111 78.6914C22.7749 78.7977 25.1656 78.8828 26.8818 78.8828C31.6683 78.8828 36.558 77.2745 36.5879 77.2646V82.4414C36.5879 82.4414 34.9701 80.5001 26.8818 81.4707C18.8147 82.4388 12.0351 85.9816 12 86V53H20.4111V78.6914Z" fill="white"/>
<mask id="mask0_1595_7136" style="mask-type:alpha" maskUnits="userSpaceOnUse" x="0" y="0" width="98" height="98">
<rect width="98" height="98" rx="16" fill="#BF022D"/>
</mask>
<g mask="url(#mask0_1595_7136)">
<path d="M73.6714 84.776C78.0721 88.677 82.5604 92.5764 85.8759 95.2596C95.1183 102.739 107.071 107.276 107.152 107.307L99.0603 117.305C99.0587 117.231 98.8682 110.964 81.8299 100.259C64.6897 89.4906 46.0033 85.7443 46.0033 85.7443L52.0723 78.2449L52.0693 78.2424L97.585 22L113.833 35.1493L73.6714 84.776Z" fill="url(#paint0_linear_1595_7136)" fill-opacity="0.11"/>
</g>
<path d="M13.04 43.39C13.2133 43.55 13.41 43.6933 13.63 43.82C13.85 43.9467 14.08 44.0567 14.32 44.15C14.5667 44.2433 14.8133 44.3133 15.06 44.36C15.3133 44.4067 15.5533 44.43 15.78 44.43C16.3067 44.4233 16.73 44.31 17.05 44.09C17.3767 43.8767 17.54 43.54 17.54 43.08C17.54 42.8867 17.4967 42.7167 17.41 42.57C17.33 42.4167 17.21 42.2833 17.05 42.17C16.8967 42.05 16.7067 41.9467 16.48 41.86C16.2533 41.7667 15.9967 41.68 15.71 41.6C15.2033 41.46 14.7633 41.3133 14.39 41.16C14.0233 41 13.7167 40.8233 13.47 40.63C13.23 40.4367 13.05 40.22 12.93 39.98C12.8167 39.74 12.76 39.46 12.76 39.14C12.76 38.8 12.83 38.5 12.97 38.24C13.1167 37.98 13.3133 37.7667 13.56 37.6C13.8133 37.4267 14.1067 37.2967 14.44 37.21C14.78 37.1233 15.14 37.08 15.52 37.08C15.9933 37.08 16.4633 37.1633 16.93 37.33C17.3967 37.49 17.8333 37.7267 18.24 38.04L17.84 38.76C17.6933 38.6467 17.53 38.54 17.35 38.44C17.17 38.34 16.98 38.25 16.78 38.17C16.5867 38.09 16.3867 38.0267 16.18 37.98C15.98 37.9333 15.7833 37.9067 15.59 37.9C15.3633 37.8933 15.14 37.91 14.92 37.95C14.7067 37.99 14.5133 38.06 14.34 38.16C14.1667 38.2533 14.0267 38.38 13.92 38.54C13.8133 38.6933 13.76 38.8833 13.76 39.11C13.76 39.3233 13.7933 39.5067 13.86 39.66C13.9267 39.8067 14.0333 39.94 14.18 40.06C14.3333 40.1733 14.53 40.28 14.77 40.38C15.01 40.4733 15.3067 40.57 15.66 40.67C16.1 40.8033 16.4967 40.9433 16.85 41.09C17.21 41.23 17.5133 41.3933 17.76 41.58C18.0133 41.76 18.2067 41.9667 18.34 42.2C18.4733 42.4333 18.54 42.7033 18.54 43.01C18.54 43.41 18.4667 43.75 18.32 44.03C18.18 44.3167 17.9833 44.55 17.73 44.73C17.4767 44.91 17.1733 45.04 16.82 45.12C16.4667 45.2067 16.08 45.25 15.66 45.25C15.1267 45.25 14.59 45.1567 14.05 44.97C13.5167 44.79 13.0367 44.53 12.61 44.19L13.04 43.39ZM22.1483 37.28H23.1683L26.2083 45.05H25.1683L24.0583 42.21L20.9083 43.09L20.1483 45.05H19.1083L22.1483 37.28ZM21.2483 42.21L23.7883 41.5L22.6583 38.58L21.2483 42.21ZM28.1945 37.28L31.3045 43.88L34.4245 37.28H35.4245V45.05H34.4245V39.28L31.7145 45.05H30.9045L28.1945 39.28V45.05H27.1945V37.28H28.1945ZM37.1611 43.39C37.3344 43.55 37.5311 43.6933 37.7511 43.82C37.9711 43.9467 38.2011 44.0567 38.4411 44.15C38.6878 44.2433 38.9344 44.3133 39.1811 44.36C39.4344 44.4067 39.6744 44.43 39.9011 44.43C40.4278 44.4233 40.8511 44.31 41.1711 44.09C41.4978 43.8767 41.6611 43.54 41.6611 43.08C41.6611 42.8867 41.6178 42.7167 41.5311 42.57C41.4511 42.4167 41.3311 42.2833 41.1711 42.17C41.0178 42.05 40.8278 41.9467 40.6011 41.86C40.3744 41.7667 40.1178 41.68 39.8311 41.6C39.3244 41.46 38.8844 41.3133 38.5111 41.16C38.1444 41 37.8378 40.8233 37.5911 40.63C37.3511 40.4367 37.1711 40.22 37.0511 39.98C36.9378 39.74 36.8811 39.46 36.8811 39.14C36.8811 38.8 36.9511 38.5 37.0911 38.24C37.2378 37.98 37.4344 37.7667 37.6811 37.6C37.9344 37.4267 38.2278 37.2967 38.5611 37.21C38.9011 37.1233 39.2611 37.08 39.6411 37.08C40.1144 37.08 40.5844 37.1633 41.0511 37.33C41.5178 37.49 41.9544 37.7267 42.3611 38.04L41.9611 38.76C41.8144 38.6467 41.6511 38.54 41.4711 38.44C41.2911 38.34 41.1011 38.25 40.9011 38.17C40.7078 38.09 40.5078 38.0267 40.3011 37.98C40.1011 37.9333 39.9044 37.9067 39.7111 37.9C39.4844 37.8933 39.2611 37.91 39.0411 37.95C38.8278 37.99 38.6344 38.06 38.4611 38.16C38.2878 38.2533 38.1478 38.38 38.0411 38.54C37.9344 38.6933 37.8811 38.8833 37.8811 39.11C37.8811 39.3233 37.9144 39.5067 37.9811 39.66C38.0478 39.8067 38.1544 39.94 38.3011 40.06C38.4544 40.1733 38.6511 40.28 38.8911 40.38C39.1311 40.4733 39.4278 40.57 39.7811 40.67C40.2211 40.8033 40.6178 40.9433 40.9711 41.09C41.3311 41.23 41.6344 41.3933 41.8811 41.58C42.1344 41.76 42.3278 41.9667 42.4611 42.2C42.5944 42.4333 42.6611 42.7033 42.6611 43.01C42.6611 43.41 42.5878 43.75 42.4411 44.03C42.3011 44.3167 42.1044 44.55 41.8511 44.73C41.5978 44.91 41.2944 45.04 40.9411 45.12C40.5878 45.2067 40.2011 45.25 39.7811 45.25C39.2478 45.25 38.7111 45.1567 38.1711 44.97C37.6378 44.79 37.1578 44.53 36.7311 44.19L37.1611 43.39ZM47.2021 45.25C46.7288 45.25 46.2921 45.17 45.8921 45.01C45.4988 44.8567 45.1588 44.64 44.8721 44.36C44.5854 44.0867 44.3621 43.7633 44.2021 43.39C44.0421 43.01 43.9621 42.6033 43.9621 42.17V37.28H44.9621V42.07C44.9621 42.37 45.0088 42.66 45.1021 42.94C45.2021 43.2133 45.3454 43.4567 45.5321 43.67C45.7254 43.8833 45.9588 44.0533 46.2321 44.18C46.5121 44.3067 46.8354 44.37 47.2021 44.37C47.5688 44.37 47.8888 44.3067 48.1621 44.18C48.4421 44.0533 48.6754 43.8833 48.8621 43.67C49.0488 43.4567 49.1888 43.2133 49.2821 42.94C49.3821 42.66 49.4321 42.37 49.4321 42.07V37.28H50.4321V42.17C50.4321 42.6033 50.3521 43.01 50.1921 43.39C50.0321 43.7633 49.8088 44.0867 49.5221 44.36C49.2421 44.64 48.9021 44.8567 48.5021 45.01C48.1088 45.17 47.6754 45.25 47.2021 45.25ZM51.9309 37.28H52.9309L57.4009 43.58V37.28H58.4009V45.05H57.4009L52.9309 38.7V45.05H51.9309V37.28ZM63.3669 45.25C62.8402 45.25 62.3369 45.1533 61.8569 44.96C61.3769 44.7733 60.9535 44.5 60.5869 44.14C60.2269 43.7867 59.9369 43.36 59.7169 42.86C59.5035 42.3533 59.3969 41.7867 59.3969 41.16C59.3969 40.5667 59.4969 40.02 59.6969 39.52C59.9035 39.02 60.1835 38.59 60.5369 38.23C60.8902 37.8633 61.3102 37.58 61.7969 37.38C62.2835 37.1733 62.8069 37.07 63.3669 37.07C64.0535 37.07 64.6869 37.2333 65.2669 37.56C65.8535 37.88 66.3402 38.33 66.7269 38.91L66.0069 39.43C65.7269 38.9767 65.3569 38.6067 64.8969 38.32C64.4435 38.0267 63.9235 37.88 63.3369 37.88C62.9169 37.88 62.5269 37.9667 62.1669 38.14C61.8069 38.3133 61.4969 38.55 61.2369 38.85C60.9769 39.1433 60.7702 39.49 60.6169 39.89C60.4702 40.2833 60.3969 40.7067 60.3969 41.16C60.3969 41.62 60.4769 42.05 60.6369 42.45C60.7969 42.85 61.0135 43.1967 61.2869 43.49C61.5602 43.7833 61.8735 44.0133 62.2269 44.18C62.5869 44.3467 62.9635 44.43 63.3569 44.43C63.7769 44.43 64.1502 44.3633 64.4769 44.23C64.8102 44.1033 65.0902 43.9233 65.3169 43.69C65.5502 43.4567 65.7269 43.1767 65.8469 42.85C65.9735 42.5233 66.0369 42.16 66.0369 41.76H63.2069V40.94H67.0269V41.4C67.0269 41.9533 66.9435 42.4667 66.7769 42.94C66.6169 43.4067 66.3802 43.81 66.0669 44.15C65.7602 44.4967 65.3769 44.7667 64.9169 44.96C64.4635 45.1533 63.9469 45.25 63.3669 45.25Z" fill="#5279A9"/>
<defs>
<linearGradient id="paint0_linear_1595_7136" x1="121.333" y1="41.2189" x2="69.7486" y2="104.961" gradientUnits="userSpaceOnUse">
<stop stop-color="white"/>
<stop offset="1" stop-color="#999999" stop-opacity="0.5"/>
</linearGradient>
</defs>
</svg>
