<svg width="98" height="98" viewBox="0 0 98 98" fill="none" xmlns="http://www.w3.org/2000/svg">
<rect width="98" height="98" rx="16" fill="#D51630"/>
<mask id="mask0_1595_7147" style="mask-type:alpha" maskUnits="userSpaceOnUse" x="0" y="0" width="98" height="98">
<rect width="98" height="98" rx="16" fill="#064CA1"/>
</mask>
<g mask="url(#mask0_1595_7147)">
<path d="M69.3837 73.3245L77.6977 77.1466L81.5193 68.8335L105.074 79.6621L90.4236 111.531L34.9997 86.0518L68.123 14L91.678 24.8286L69.3837 73.3245Z" fill="url(#paint0_linear_1595_7147)" fill-opacity="0.17"/>
</g>
<path d="M22.7881 75.2119H26.5967V71.4043H37.3848V86H12V53H22.7881V75.2119Z" fill="white"/>
<path d="M13.04 43.39C13.2133 43.55 13.41 43.6933 13.63 43.82C13.85 43.9467 14.08 44.0567 14.32 44.15C14.5667 44.2433 14.8133 44.3133 15.06 44.36C15.3133 44.4067 15.5533 44.43 15.78 44.43C16.3067 44.4233 16.73 44.31 17.05 44.09C17.3767 43.8767 17.54 43.54 17.54 43.08C17.54 42.8867 17.4967 42.7167 17.41 42.57C17.33 42.4167 17.21 42.2833 17.05 42.17C16.8967 42.05 16.7067 41.9467 16.48 41.86C16.2533 41.7667 15.9967 41.68 15.71 41.6C15.2033 41.46 14.7633 41.3133 14.39 41.16C14.0233 41 13.7167 40.8233 13.47 40.63C13.23 40.4367 13.05 40.22 12.93 39.98C12.8167 39.74 12.76 39.46 12.76 39.14C12.76 38.8 12.83 38.5 12.97 38.24C13.1167 37.98 13.3133 37.7667 13.56 37.6C13.8133 37.4267 14.1067 37.2967 14.44 37.21C14.78 37.1233 15.14 37.08 15.52 37.08C15.9933 37.08 16.4633 37.1633 16.93 37.33C17.3967 37.49 17.8333 37.7267 18.24 38.04L17.84 38.76C17.6933 38.6467 17.53 38.54 17.35 38.44C17.17 38.34 16.98 38.25 16.78 38.17C16.5867 38.09 16.3867 38.0267 16.18 37.98C15.98 37.9333 15.7833 37.9067 15.59 37.9C15.3633 37.8933 15.14 37.91 14.92 37.95C14.7067 37.99 14.5133 38.06 14.34 38.16C14.1667 38.2533 14.0267 38.38 13.92 38.54C13.8133 38.6933 13.76 38.8833 13.76 39.11C13.76 39.3233 13.7933 39.5067 13.86 39.66C13.9267 39.8067 14.0333 39.94 14.18 40.06C14.3333 40.1733 14.53 40.28 14.77 40.38C15.01 40.4733 15.3067 40.57 15.66 40.67C16.1 40.8033 16.4967 40.9433 16.85 41.09C17.21 41.23 17.5133 41.3933 17.76 41.58C18.0133 41.76 18.2067 41.9667 18.34 42.2C18.4733 42.4333 18.54 42.7033 18.54 43.01C18.54 43.41 18.4667 43.75 18.32 44.03C18.18 44.3167 17.9833 44.55 17.73 44.73C17.4767 44.91 17.1733 45.04 16.82 45.12C16.4667 45.2067 16.08 45.25 15.66 45.25C15.1267 45.25 14.59 45.1567 14.05 44.97C13.5167 44.79 13.0367 44.53 12.61 44.19L13.04 43.39ZM20.081 43.39C20.2543 43.55 20.451 43.6933 20.671 43.82C20.891 43.9467 21.121 44.0567 21.361 44.15C21.6077 44.2433 21.8543 44.3133 22.101 44.36C22.3543 44.4067 22.5943 44.43 22.821 44.43C23.3477 44.4233 23.771 44.31 24.091 44.09C24.4177 43.8767 24.581 43.54 24.581 43.08C24.581 42.8867 24.5377 42.7167 24.451 42.57C24.371 42.4167 24.251 42.2833 24.091 42.17C23.9377 42.05 23.7477 41.9467 23.521 41.86C23.2943 41.7667 23.0377 41.68 22.751 41.6C22.2443 41.46 21.8043 41.3133 21.431 41.16C21.0643 41 20.7577 40.8233 20.511 40.63C20.271 40.4367 20.091 40.22 19.971 39.98C19.8577 39.74 19.801 39.46 19.801 39.14C19.801 38.8 19.871 38.5 20.011 38.24C20.1577 37.98 20.3543 37.7667 20.601 37.6C20.8543 37.4267 21.1477 37.2967 21.481 37.21C21.821 37.1233 22.181 37.08 22.561 37.08C23.0343 37.08 23.5043 37.1633 23.971 37.33C24.4377 37.49 24.8743 37.7267 25.281 38.04L24.881 38.76C24.7343 38.6467 24.571 38.54 24.391 38.44C24.211 38.34 24.021 38.25 23.821 38.17C23.6277 38.09 23.4277 38.0267 23.221 37.98C23.021 37.9333 22.8243 37.9067 22.631 37.9C22.4043 37.8933 22.181 37.91 21.961 37.95C21.7477 37.99 21.5543 38.06 21.381 38.16C21.2077 38.2533 21.0677 38.38 20.961 38.54C20.8543 38.6933 20.801 38.8833 20.801 39.11C20.801 39.3233 20.8343 39.5067 20.901 39.66C20.9677 39.8067 21.0743 39.94 21.221 40.06C21.3743 40.1733 21.571 40.28 21.811 40.38C22.051 40.4733 22.3477 40.57 22.701 40.67C23.141 40.8033 23.5377 40.9433 23.891 41.09C24.251 41.23 24.5543 41.3933 24.801 41.58C25.0543 41.76 25.2477 41.9667 25.381 42.2C25.5143 42.4333 25.581 42.7033 25.581 43.01C25.581 43.41 25.5077 43.75 25.361 44.03C25.221 44.3167 25.0243 44.55 24.771 44.73C24.5177 44.91 24.2143 45.04 23.861 45.12C23.5077 45.2067 23.121 45.25 22.701 45.25C22.1677 45.25 21.631 45.1567 21.091 44.97C20.5577 44.79 20.0777 44.53 19.651 44.19L20.081 43.39ZM30.652 45.25C30.1254 45.25 29.622 45.1533 29.142 44.96C28.662 44.7733 28.2387 44.5 27.872 44.14C27.512 43.7867 27.222 43.36 27.002 42.86C26.7887 42.3533 26.682 41.7867 26.682 41.16C26.682 40.5667 26.782 40.02 26.982 39.52C27.1887 39.02 27.4687 38.59 27.822 38.23C28.1754 37.8633 28.5954 37.58 29.082 37.38C29.5687 37.1733 30.092 37.07 30.652 37.07C31.3387 37.07 31.972 37.2333 32.552 37.56C33.1387 37.88 33.6254 38.33 34.012 38.91L33.292 39.43C33.012 38.9767 32.642 38.6067 32.182 38.32C31.7287 38.0267 31.2087 37.88 30.622 37.88C30.202 37.88 29.812 37.9667 29.452 38.14C29.092 38.3133 28.782 38.55 28.522 38.85C28.262 39.1433 28.0554 39.49 27.902 39.89C27.7554 40.2833 27.682 40.7067 27.682 41.16C27.682 41.62 27.762 42.05 27.922 42.45C28.082 42.85 28.2987 43.1967 28.572 43.49C28.8454 43.7833 29.1587 44.0133 29.512 44.18C29.872 44.3467 30.2487 44.43 30.642 44.43C31.062 44.43 31.4354 44.3633 31.762 44.23C32.0954 44.1033 32.3754 43.9233 32.602 43.69C32.8354 43.4567 33.012 43.1767 33.132 42.85C33.2587 42.5233 33.322 42.16 33.322 41.76H30.492V40.94H34.312V41.4C34.312 41.9533 34.2287 42.4667 34.062 42.94C33.902 43.4067 33.6654 43.81 33.352 44.15C33.0454 44.4967 32.662 44.7667 32.202 44.96C31.7487 45.1533 31.232 45.25 30.652 45.25Z" fill="#E86375"/>
<defs>
<linearGradient id="paint0_linear_1595_7147" x1="95.835" y1="26.7396" x2="62.7117" y2="98.7914" gradientUnits="userSpaceOnUse">
<stop stop-color="white"/>
<stop offset="1" stop-color="#999999" stop-opacity="0.5"/>
</linearGradient>
</defs>
</svg>
