<svg width="28" height="28" viewBox="0 0 28 28" fill="none" xmlns="http://www.w3.org/2000/svg">
<path d="M2 13.3333C2 12.0447 3.04467 11 4.33333 11H7V23H4.33333C3.04467 23 2 21.9553 2 20.6667V13.3333Z" stroke="#95969B" stroke-width="1.68"/>
<path d="M11.6108 2.3335C12.6425 2.3335 13.5132 3.102 13.6411 4.12565L13.73 4.83773C13.8795 6.03364 13.5464 7.22521 13.6183 8.42546C13.6528 9.00106 14.024 9.3335 17.5 9.3335H22.8822C24.334 9.33363 25.4328 10.6453 25.179 12.0747L23.5202 21.408C23.3222 22.5217 22.3533 23.3335 21.2222 23.3335H7V11L9.67171 3.72689C9.95185 2.89449 10.7326 2.33352 11.6108 2.3335Z" stroke="#95969B" stroke-width="1.68"/>
</svg>
