<svg width="28" height="28" viewBox="0 0 28 28" fill="none" xmlns="http://www.w3.org/2000/svg">
<path d="M2 13.3333C2 12.0447 3.04467 11 4.33333 11H6V23H4.33333C3.04467 23 2 21.9553 2 20.6667V13.3333Z" fill="#FF4552"/>
<path d="M11.5563 2C12.5757 2 13.4361 2.76851 13.5625 3.79215L13.6503 4.50423C13.798 5.70014 13.4689 6.89172 13.54 8.09196C13.5741 8.66756 13.9409 9 17.3757 9H22.6942C24.1288 9.00014 25.2147 10.3118 24.9638 11.7412L23.3246 21.0745C23.129 22.1882 22.1715 23 21.0538 23H7V11L9.64009 3.39339C9.91691 2.56099 10.6884 2.00002 11.5563 2Z" fill="#FF4552"/>
</svg>
